<svg xmlns="http://www.w3.org/2000/svg" viewBox="0 0 142 142"><defs><style>.cls-1,.cls-2{fill:#fff;}.cls-1{stroke:#39b54a;stroke-miterlimit:10;stroke-width:2px;}.cls-3{fill:#f1563f;}.cls-4{fill:#fbb03b;}.cls-5{fill:none;stroke:#a67c52;stroke-linecap:round;stroke-linejoin:round;}</style></defs><title>Asset 23</title><g id="Layer_2" data-name="Layer 2"><g id="Layer_1-2" data-name="Layer 1"><circle class="cls-1" cx="71" cy="71" r="70"/><circle class="cls-2" cx="71.13" cy="70.33" r="45.78"/><circle class="cls-2" cx="71.12" cy="70.33" r="40.32"/><path class="cls-3" d="M26.23,70.33a44.9,44.9,0,1,1,44.89,44.9A44.94,44.94,0,0,1,26.23,70.33Zm7.74,0A37.16,37.16,0,1,0,71.12,33.18,37.19,37.19,0,0,0,34,70.33Z"/><path class="cls-3" d="M42.09,70.33a29,29,0,1,1,29,29A29.06,29.06,0,0,1,42.09,70.33Zm7.74,0A21.29,21.29,0,1,0,71.12,49.05,21.31,21.31,0,0,0,49.83,70.33Z"/><path class="cls-3" d="M58.35,70.33A12.77,12.77,0,1,1,71.12,83.11,12.79,12.79,0,0,1,58.35,70.33Zm7.74,0a5,5,0,1,0,5-5A5,5,0,0,0,66.09,70.33Z"/><polygon class="cls-4" points="111.44 97.11 111.44 104.07 101.04 97.11 98.26 88.36 107.17 88.36 116.9 94.15 111.44 97.11"/><line class="cls-5" x1="71.12" y1="70.33" x2="114.82" y2="99.36"/></g></g></svg>