<svg xmlns="http://www.w3.org/2000/svg" viewBox="0 0 142 142"><defs><style>.cls-1,.cls-3{fill:#fff;}.cls-1{stroke:#fbb03b;stroke-miterlimit:10;stroke-width:2px;}.cls-2{fill:#2e9edd;}.cls-4{fill:#f0f0f0;}.cls-5{fill:#38a5e8;}.cls-6{fill:#42aefa;}.cls-7{fill:#42b1ff;}.cls-8{fill:#b3b3b3;}.cls-9{fill:#bdbdbd;}.cls-10{fill:#cfcfcf;}.cls-11{fill:#d4d4d4;}.cls-12{fill:#006837;}.cls-13{fill:#009245;}.cls-14{fill:#39b54a;}</style></defs><title>Asset 24</title><g id="Layer_2" data-name="Layer 2"><g id="Layer_1-2" data-name="Layer 1"><circle class="cls-1" cx="71" cy="71" r="70"/><path class="cls-2" d="M35.54,94.71c-1.54-2-1.1-5.42.24-8L34,86a4.93,4.93,0,0,0-1.59,3.77c0,1.69-.25,4.41,1.27,6.12a4.24,4.24,0,0,0,1.13.89l1.77-1.15A3.7,3.7,0,0,1,35.54,94.71Z"/><path class="cls-3" d="M71.19,101.57a5.72,5.72,0,0,1,.9-2.08,4.91,4.91,0,0,1-1-.22l-4.58-1.63L51.81,92.42l-.4-.15-.08,0-.16-.06-.81-.29L50,91.77l-6.4-2.34-7.81-2.77c-1.34,2.63-1.78,6.06-.24,8a3.7,3.7,0,0,0,1.05,1l.31.16a1.39,1.39,0,0,0,.28.12h0l.51.17,20.15,7.22,15.65,5.56C70.39,107.42,70.91,103,71.19,101.57Z"/><path class="cls-4" d="M108.29,83.74a6.41,6.41,0,0,1-.53-1.14,5.4,5.4,0,0,1-.22-2.92,9.48,9.48,0,0,1,.64-2l-5,3.26-1.15.76-.9.58L84.56,93.23,82.8,94.38,76.23,98.7a6.59,6.59,0,0,1-4.14.79,5.72,5.72,0,0,0-.9,2.08c-.28,1.41-.8,5.85,2.3,7.33l36-23.61A8.33,8.33,0,0,1,108.29,83.74Z"/><path class="cls-5" d="M112.16,85a1.59,1.59,0,0,1-.87,1.26l-35.06,23a6.53,6.53,0,0,1-5.11.57l-15.31-5.43L35.3,97,37.18,96h0L35.3,97,35.15,97l-.33-.16a4.24,4.24,0,0,1-1.13-.89c-1.52-1.71-1.29-4.43-1.27-6.12A4.93,4.93,0,0,1,34,86l1.77.63,7.81,2.77L50,91.77l.37.13.81.29.16.06.08,0,.4.15,14.73,5.22,4.58,1.63a4.91,4.91,0,0,0,1,.22,6.59,6.59,0,0,0,4.14-.79l6.57-4.32,1.76-1.15,16.61-10.9.9-.58,1.15-.76,5-3.26,3.11-2a1.64,1.64,0,0,0,.87-1.23c0-.51,0-.88,0-1.88a1.18,1.18,0,0,1-.35.81l0,0a3.38,3.38,0,0,1-.48.4l-.18.12-9.74,6.38-1.21.8-.83.54L79.05,95l-2.14,1.4-.68.45a5.78,5.78,0,0,1-2.37.79q-.37,0-.75.06a6.55,6.55,0,0,1-.89,0,4.77,4.77,0,0,1-1.1-.24l-2.74-1-14.6-5.18-.38-.14-.09,0L53,91l-.81-.29-.37-.12L50.21,90l-11-4-2.46-.86L35,84.52l-1.84-.65A8.12,8.12,0,0,0,30.09,90c0,2.16-.19,6.92,3.06,8.33l38,13.54a6.53,6.53,0,0,0,5.11-.57l35.06-23a1.63,1.63,0,0,0,.87-1.21C112.18,86.52,112.16,86.22,112.16,85Z"/><path class="cls-6" d="M110.9,71.31,79.09,60a2.39,2.39,0,0,0-2.18.1L33.15,83.87l1.84.65,1.73.62,2.46.86,11,4,1.62.58.37.12L53,91l.3.11.09,0,.38.14,14.6,5.18,2.74,1a4.77,4.77,0,0,0,1.1.24,6.55,6.55,0,0,0,.89,0q.38,0,.75-.06a5.78,5.78,0,0,0,2.37-.79l.68-.45L79.05,95,99.33,81.68l.83-.54,1.21-.8L111.11,74l.18-.12a3.38,3.38,0,0,0,.48-.4l0,0a1.18,1.18,0,0,0,.35-.81C112.16,72.08,111.73,71.61,110.9,71.31Z"/><path class="cls-7" d="M110.9,83.72l-3.14-1.12a6.41,6.41,0,0,0,.53,1.14,8.33,8.33,0,0,0,1.2,1.55l-36,23.61-15.65-5.56L37.69,96.12a3.86,3.86,0,0,1-.48-.16l-.31-.14-.31-.16-1.77,1.15.33.16.15.07h0l20.51,7.34,15.31,5.43a6.53,6.53,0,0,0,5.11-.57l35.06-23a1.59,1.59,0,0,0,.87-1.26C112.15,84.48,111.72,84,110.9,83.72Z"/><path class="cls-8" d="M35.54,79.87c-1.54-2-1.1-5.43.24-8.06L34,71.19A4.92,4.92,0,0,0,32.42,75c0,1.68-.25,4.4,1.27,6.12a4,4,0,0,0,1.13.88l1.77-1.15A3.82,3.82,0,0,1,35.54,79.87Z"/><path class="cls-3" d="M71.19,86.72a5.6,5.6,0,0,1,.91-2.07,4.85,4.85,0,0,1-1-.23L66.54,82.8,51.81,77.57l-.4-.14-.08,0-.16-.05-.81-.29L50,76.93l-6.4-2.34-7.81-2.78c-1.34,2.63-1.78,6.06-.24,8.06a3.82,3.82,0,0,0,1.05.94l.31.17.27.12h0c.16.06.33.12.51.17L57.84,88.5,73.5,94.05C70.39,92.58,70.91,88.14,71.19,86.72Z"/><path class="cls-4" d="M108.29,68.89a6,6,0,0,1-.53-1.13,5.4,5.4,0,0,1-.22-2.92,9.28,9.28,0,0,1,.64-2l-5,3.26-1.15.75-.9.59L84.56,78.39,82.8,79.54l-6.57,4.31a6.51,6.51,0,0,1-4.13.8,5.6,5.6,0,0,0-.91,2.07c-.28,1.42-.8,5.86,2.31,7.33l36-23.61A8,8,0,0,1,108.29,68.89Z"/><path class="cls-9" d="M112.16,70.13a1.59,1.59,0,0,1-.87,1.27l-35.06,23a6.53,6.53,0,0,1-5.11.57L55.81,89.54l-20.5-7.35,1.87-1.08h0l-1.86,1.09-.16-.06L34.82,82a4,4,0,0,1-1.13-.88c-1.52-1.72-1.29-4.44-1.27-6.12A4.92,4.92,0,0,1,34,71.19l1.77.62,7.81,2.78L50,76.93l.37.13.81.29.16.05.08,0,.4.14L66.54,82.8l4.58,1.62a4.85,4.85,0,0,0,1,.23,6.51,6.51,0,0,0,4.13-.8l6.57-4.31,1.76-1.15,16.61-10.9.9-.59,1.15-.75,5-3.26,3.11-2a1.61,1.61,0,0,0,.87-1.22c0-.52,0-.88,0-1.89a1.15,1.15,0,0,1-.35.81l0,0a2.85,2.85,0,0,1-.48.41l-.18.11-9.74,6.39-1.21.79-.83.55L79.05,80.14l-2.14,1.41-.68.44a5.64,5.64,0,0,1-2.37.8,6.3,6.3,0,0,1-.75,0,5.26,5.26,0,0,1-.89,0,4.77,4.77,0,0,1-1.1-.24l-2.74-1-14.6-5.17-.38-.14-.09,0-.3-.11-.81-.29-.37-.13-1.62-.57-11-4-2.46-.87L35,69.68,33.15,69a8.12,8.12,0,0,0-3.06,6.08c0,2.16-.19,6.92,3.06,8.33L71.12,97a6.49,6.49,0,0,0,5.11-.57l35.06-23a1.64,1.64,0,0,0,.87-1.2C112.18,71.67,112.16,71.38,112.16,70.13Z"/><path class="cls-10" d="M110.9,56.47,79.09,45.19a2.39,2.39,0,0,0-2.18.09L33.15,69l1.84.65,1.73.61,2.46.87,11,4,1.62.57.37.13.81.29.3.11.09,0,.38.14,14.6,5.17,2.74,1a4.77,4.77,0,0,0,1.1.24,5.26,5.26,0,0,0,.89,0,6.3,6.3,0,0,0,.75,0,5.64,5.64,0,0,0,2.37-.8l.68-.44,2.14-1.41,20.28-13.3.83-.55,1.21-.79,9.74-6.39.18-.11a2.85,2.85,0,0,0,.48-.41l0,0a1.2,1.2,0,0,0,.36-.83C112.16,57.24,111.73,56.76,110.9,56.47Z"/><path class="cls-11" d="M110.9,68.88l-3.14-1.12a6,6,0,0,0,.53,1.13,8,8,0,0,0,1.2,1.55l-36,23.61L57.84,88.5,37.69,81.28a3.9,3.9,0,0,1-.48-.17A3.24,3.24,0,0,1,36.9,81l-.31-.17L34.82,82l.33.17.16.06h0l20.5,7.35L71.12,95a6.53,6.53,0,0,0,5.11-.57l35.06-23a1.59,1.59,0,0,0,.87-1.27C112.15,69.63,111.72,69.17,110.9,68.88Z"/><path class="cls-12" d="M35.54,65c-1.54-2-1.1-5.43.24-8.06L34,56.32a4.9,4.9,0,0,0-1.59,3.77c0,1.68-.25,4.4,1.27,6.11a3.88,3.88,0,0,0,1.13.89l1.77-1.15A3.67,3.67,0,0,1,35.54,65Z"/><path class="cls-3" d="M71.19,71.85a5.67,5.67,0,0,1,.9-2.07,4.91,4.91,0,0,1-1-.23l-4.58-1.62L51.81,62.7l-.4-.14-.08,0-.16-.06-5.6-2-.37-.13-1.61-.58-7.81-2.77C34.44,59.57,34,63,35.54,65a3.67,3.67,0,0,0,1.05.94,3.07,3.07,0,0,0,.31.17l.28.12h0c.16.06.33.12.51.17l20.15,7.22,15.65,5.55C70.39,77.71,70.91,73.27,71.19,71.85Z"/><path class="cls-4" d="M108.29,54a6,6,0,0,1-.53-1.13,5.43,5.43,0,0,1-.22-2.93,9.39,9.39,0,0,1,.64-1.94l-5,3.26-1.15.75-.9.59L84.56,63.51,82.8,64.67,76.23,69a6.59,6.59,0,0,1-4.14.8,5.67,5.67,0,0,0-.9,2.07c-.28,1.42-.8,5.86,2.3,7.33l36-23.61A8,8,0,0,1,108.29,54Z"/><path class="cls-13" d="M112.16,55.26a1.59,1.59,0,0,1-.87,1.27l-35.06,23a6.53,6.53,0,0,1-5.11.58L55.81,74.66,35.3,67.32l1.88-1.08h0L35.3,67.32l-.15-.07-.33-.16a3.88,3.88,0,0,1-1.13-.89c-1.52-1.71-1.29-4.43-1.27-6.11A4.9,4.9,0,0,1,34,56.32l1.77.62,7.81,2.77,1.61.58.37.13,5.6,2,.16.06.08,0,.4.14,14.73,5.23,4.58,1.62a4.91,4.91,0,0,0,1,.23,6.59,6.59,0,0,0,4.14-.8l6.57-4.31,1.76-1.16,16.61-10.89.9-.59,1.15-.75,5-3.26,3.11-2a1.64,1.64,0,0,0,.87-1.22c0-.52,0-.89,0-1.89a1.15,1.15,0,0,1-.35.81l0,0a2.83,2.83,0,0,1-.48.4l-.18.12-9.74,6.39-1.21.79-.83.55L79.05,65.27l-2.14,1.41-.68.44a5.78,5.78,0,0,1-2.37.79,4.74,4.74,0,0,1-.75.06,5.26,5.26,0,0,1-.89,0,5.36,5.36,0,0,1-1.1-.23l-2.74-1-14.6-5.18-.38-.13-.09,0-.3-.1L52.2,61l-.37-.13-6.4-2.34-6.25-2.22-2.46-.87L35,54.81l-1.84-.66a8.13,8.13,0,0,0-3.06,6.09c0,2.16-.19,6.91,3.06,8.32l38,13.54a6.49,6.49,0,0,0,5.11-.57l35.06-23a1.64,1.64,0,0,0,.87-1.2C112.18,56.8,112.16,56.5,112.16,55.26Z"/><path class="cls-14" d="M110.9,41.6l-36.59-13a2.38,2.38,0,0,0-2.18.09l-39,25.51,1.84.66,1.73.61,2.46.87,6.25,2.22,6.4,2.34.37.13.81.29.3.1.09,0,.38.13,14.6,5.18,2.74,1a5.36,5.36,0,0,0,1.1.23,5.26,5.26,0,0,0,.89,0,4.74,4.74,0,0,0,.75-.06,5.78,5.78,0,0,0,2.37-.79l.68-.44,2.14-1.41L99.33,52l.83-.55,1.21-.79,9.74-6.39.18-.12a2.83,2.83,0,0,0,.48-.4l0,0a1.16,1.16,0,0,0,.36-.82C112.16,42.37,111.73,41.89,110.9,41.6Z"/><path class="cls-14" d="M110.9,54l-3.14-1.11a6,6,0,0,0,.53,1.13,8,8,0,0,0,1.2,1.55l-36,23.61L57.84,73.63,37.69,66.41l-.48-.17-.31-.13a3.07,3.07,0,0,1-.31-.17l-1.77,1.15.33.16.15.07h0l20.51,7.34L71.12,80.1a6.53,6.53,0,0,0,5.11-.58l35.06-23a1.59,1.59,0,0,0,.87-1.27C112.15,54.76,111.72,54.29,110.9,54Z"/></g></g></svg>