<svg xmlns="http://www.w3.org/2000/svg" viewBox="0 0 142 142"><defs><style>.cls-1{fill:#fff;stroke:#c1272d;stroke-miterlimit:10;stroke-width:2px;}.cls-2{fill:#f7931e;}.cls-3{fill:#ffeb7a;}.cls-4{fill:#7d99ff;}</style></defs><title>Asset 25</title><g id="Layer_2" data-name="Layer 2"><g id="Layer_1-2" data-name="Layer 1"><circle class="cls-1" cx="71" cy="71" r="70"/><path class="cls-2" d="M89.83,49.84A18.83,18.83,0,1,1,71,31,18.84,18.84,0,0,1,89.83,49.84Z"/><path class="cls-3" d="M86,49.84a15,15,0,1,1-15-15A15,15,0,0,1,86,49.84Z"/><polygon class="cls-2" points="71 38.42 73.56 46.31 81.85 46.31 75.15 51.18 77.71 59.07 71 54.2 64.29 59.07 66.85 51.18 60.14 46.31 68.44 46.31 71 38.42"/><polygon class="cls-4" points="71 92.47 73.56 100.36 81.85 100.36 75.15 105.24 77.71 113.12 71 108.25 64.29 113.12 66.85 105.24 60.14 100.36 68.44 100.36 71 92.47"/><polygon class="cls-4" points="46.47 87.97 48.59 94.51 55.48 94.51 49.91 98.56 52.03 105.11 46.47 101.06 40.9 105.11 43.02 98.56 37.46 94.51 44.34 94.51 46.47 87.97"/><polygon class="cls-4" points="31.93 78.17 33.23 82.18 37.46 82.18 34.04 84.66 35.35 88.68 31.93 86.19 28.52 88.68 29.82 84.66 26.41 82.18 30.63 82.18 31.93 78.17"/><polygon class="cls-4" points="95.53 87.97 93.41 94.51 86.52 94.51 92.09 98.56 89.96 105.11 95.53 101.06 101.1 105.11 98.98 98.56 104.54 94.51 97.66 94.51 95.53 87.97"/><polygon class="cls-4" points="110.07 78.17 108.76 82.18 104.54 82.18 107.96 84.66 106.65 88.68 110.07 86.19 113.48 88.68 112.18 84.66 115.59 82.18 111.37 82.18 110.07 78.17"/><path class="cls-4" d="M71,82.1s-.21.8-.45,1.61S70,85.32,70,85.32a4.82,4.82,0,0,1-1.25,2,5,5,0,0,1-1,.78,5.76,5.76,0,0,1-.61.3,4.86,4.86,0,0,1-.67.25,5.65,5.65,0,0,1-.71.17,5.82,5.82,0,0,1-.73.09,6.47,6.47,0,0,1-1.46,0,5.86,5.86,0,0,1-.73-.13l-.35-.09-.34-.11c-.23-.08-.46-.16-.68-.26l-.63-.33-.33-.19-.71-.44c-.26-.15-.51-.33-.7-.45l-.31-.21s.51-.59,1-1.2.94-1.21.94-1.21a7.27,7.27,0,0,1,1.79-1.66,8.25,8.25,0,0,1,2.27-1,7.51,7.51,0,0,1,4.65.09l.77.26Z"/><path class="cls-4" d="M71,82.1s-.21-.82-.4-1.63-.34-1.62-.34-1.62a8.37,8.37,0,0,0-.7-2.1,9,9,0,0,0-.52-.91l-.3-.41c-.1-.13-.21-.25-.32-.37a3.64,3.64,0,0,0-.34-.34l-.34-.28A4,4,0,0,0,67,74l-.37-.14-.19,0-.2,0a1.67,1.67,0,0,0-.39,0,1.86,1.86,0,0,0-.41,0h-.22l-.5,0H64s-.14.73-.27,1.48-.22,1.49-.22,1.49a5.56,5.56,0,0,0,.15,2.33,4.88,4.88,0,0,0,1.22,2.07,5,5,0,0,0,4.5,1.33l.81-.18Z"/><path class="cls-4" d="M61.41,80.21l-.31.42-.71.91c-.52.66-1.07,1.3-1.07,1.3a4.89,4.89,0,0,1-1.88,1.39,5.37,5.37,0,0,1-1.22.35,5.61,5.61,0,0,1-1.37.06,6,6,0,0,1-1.4-.25,6.28,6.28,0,0,1-1.32-.53A7.29,7.29,0,0,1,50,82.13s-.38-.46-.73-.92L49,80.88l-.23-.3c-.12-.18-.21-.29-.21-.29l1.3-.82c.65-.41,1.29-.85,1.29-.85a7.27,7.27,0,0,1,2.22-1,8.18,8.18,0,0,1,1.22-.21q.31,0,.63,0c.21,0,.43,0,.64,0a7.21,7.21,0,0,1,4.3,1.76l.19.17c.12.09.27.23.43.36l.44.34Z"/><path class="cls-4" d="M61.41,80.21s0-.21.07-.52.1-.72.17-1.13c.13-.83.29-1.64.29-1.64a8.29,8.29,0,0,0,.11-2.21,7.19,7.19,0,0,0-.17-1,7.33,7.33,0,0,0-.31-1,5.15,5.15,0,0,0-.45-.84,4,4,0,0,0-.57-.66,3.85,3.85,0,0,0-1.46-.86s-.36-.11-.72-.25L58.1,70l-.23-.09-.22-.09s-.37.65-.73,1.32l-.69,1.34a5.62,5.62,0,0,0-.62,2.27,4.8,4.8,0,0,0,.08,1.19,4.65,4.65,0,0,0,.15.59,5.77,5.77,0,0,0,.22.58A5.12,5.12,0,0,0,59.78,80L60,80l.56.09.56.08Z"/><path class="cls-4" d="M53.1,75.05l-.44.29-1,.64c-.7.45-1.42.89-1.42.89a5.06,5.06,0,0,1-2.21.75,5.67,5.67,0,0,1-2.53-.35,6.83,6.83,0,0,1-3.82-3.64s0-.13-.14-.33-.19-.45-.29-.72-.21-.52-.28-.71l-.13-.33,1.47-.46,1-.33.45-.16a7.26,7.26,0,0,1,4.84.11,7,7,0,0,1,3.59,3l.13.22.29.47.3.48Z"/><path class="cls-4" d="M53.09,75.05l.24-.47.52-1c.39-.74.8-1.46.8-1.46A7.75,7.75,0,0,0,55.42,70a6.09,6.09,0,0,0,.11-2.12,4.29,4.29,0,0,0-1.83-3.13l-.21-.14-.44-.33L52.6,64l-.2-.16-1,1.1-.7.77-.32.35a5.94,5.94,0,0,0-1.19,2,5.12,5.12,0,0,0-.21,2.41,5.45,5.45,0,0,0,.32,1.2,5.59,5.59,0,0,0,.59,1.07,5.36,5.36,0,0,0,1.78,1.57l.23.12c.13.08.32.17.5.26l.5.26Z"/><path class="cls-4" d="M46.64,67.67l-.49.17-1.1.37c-.79.26-1.6.5-1.6.5a5.51,5.51,0,0,1-1.13.22,5.2,5.2,0,0,1-1.18,0A5.64,5.64,0,0,1,40,68.58c-.2-.08-.39-.17-.59-.27a5.7,5.7,0,0,1-.57-.34A6.62,6.62,0,0,1,36,63.66s-.1-.54-.19-1.09l-.11-.75-.05-.34,1.53-.13,1.53-.16a7.07,7.07,0,0,1,4.68,1.17A6.8,6.8,0,0,1,45.13,64a6.5,6.5,0,0,1,1,2.08s.11.38.24.77l.17.54Z"/><path class="cls-4" d="M46.64,67.67l.35-.39c.2-.23.48-.54.77-.85.56-.62,1.14-1.22,1.14-1.22a7.48,7.48,0,0,0,.71-.87,7.74,7.74,0,0,0,.56-1,6.3,6.3,0,0,0,.39-1c0-.17.09-.35.13-.52a5,5,0,0,0,.08-.54,4.54,4.54,0,0,0-1.12-3.6l-.54-.62c-.13-.16-.26-.32-.37-.44l-.16-.2-1.25.85-1.23.87a5.55,5.55,0,0,0-2.37,4,5.33,5.33,0,0,0,1.69,4.38l.6.56.42.37Z"/><path class="cls-4" d="M42.12,59s-.83.1-1.67.18-1.67.15-1.67.15a5.32,5.32,0,0,1-2.29-.3,5.63,5.63,0,0,1-2.09-1.36,6.52,6.52,0,0,1-1.86-4.71s0-.55,0-1.09l.06-1.09,1.53.16,1.52.13a7,7,0,0,1,2.33.63,7.12,7.12,0,0,1,2,1.43,7.73,7.73,0,0,1,.79,1,5.61,5.61,0,0,1,.58,1A6.26,6.26,0,0,1,42,57.34s0,.1,0,.25,0,.36,0,.56Z"/><path class="cls-4" d="M42.12,59s.67-.49,1.36-1,1.37-.94,1.37-.94a7,7,0,0,0,1.63-1.54,6.15,6.15,0,0,0,1-1.93,4.66,4.66,0,0,0-.39-3.82L46.69,49l-.4-.74s-.7.29-1.39.6l-1.38.62a5.88,5.88,0,0,0-1.92,1.39A5.42,5.42,0,0,0,40.41,53a4.73,4.73,0,0,0-.21,1.22,5.49,5.49,0,0,0,.06,1.22,5.42,5.42,0,0,0,.9,2.19s.06.08.14.21l.33.46Z"/><path class="cls-4" d="M39.46,49.51s-.84-.06-1.67-.14l-1.67-.17a5.33,5.33,0,0,1-2.19-.73,5.61,5.61,0,0,1-1.8-1.71,6.45,6.45,0,0,1-1-4.92s0-.13.07-.33.09-.47.16-.73l.24-1.05s.74.22,1.48.42,1.48.4,1.48.4a7,7,0,0,1,2.18,1l.48.38c.15.14.31.28.45.43a7,7,0,0,1,.8,1,6.52,6.52,0,0,1,1.11,4.53s0,.1,0,.25,0,.36-.06.56,0,.4-.06.56S39.46,49.51,39.46,49.51Z"/><path class="cls-4" d="M39.46,49.51,41,48.82l1.53-.67a6.38,6.38,0,0,0,1-.53A6.48,6.48,0,0,0,44.4,47a6.09,6.09,0,0,0,1.35-1.73,4.77,4.77,0,0,0,.32-3.87s0-.1-.09-.25l-.19-.56-.26-.81-1.47.35-1.47.37a5.88,5.88,0,0,0-2.14,1c-.15.12-.31.25-.46.39a5.76,5.76,0,0,0-.41.44,5.57,5.57,0,0,0-.68,1A5.47,5.47,0,0,0,38.77,48l.11.23.23.52.24.51Z"/><path class="cls-4" d="M71,82.1s.21-.82.39-1.63.35-1.62.35-1.62a8,8,0,0,1,.7-2.1,9,9,0,0,1,.52-.91l.3-.41c.1-.13.21-.25.32-.37a3.64,3.64,0,0,1,.34-.34l.34-.28A4,4,0,0,1,75,74l.37-.14.19,0,.19,0a1.75,1.75,0,0,1,.4,0,1.86,1.86,0,0,1,.41,0h.22l.5,0H78s.14.73.27,1.48.22,1.49.22,1.49a5.56,5.56,0,0,1-.15,2.33,4.88,4.88,0,0,1-1.22,2.07,5,5,0,0,1-4.51,1.33l-.8-.18Z"/><path class="cls-4" d="M71,82.1s.21.8.45,1.61.5,1.61.5,1.61a5,5,0,0,0,1.25,2,5.36,5.36,0,0,0,1,.78,4.94,4.94,0,0,0,.61.3,4.86,4.86,0,0,0,.67.25,5.65,5.65,0,0,0,.71.17,5.82,5.82,0,0,0,.73.09,6.49,6.49,0,0,0,1.46,0,5.71,5.71,0,0,0,.72-.13c.12,0,.24-.06.36-.09l.34-.11a6.66,6.66,0,0,0,.67-.26c.22-.1.43-.21.64-.33l.33-.19.71-.44c.26-.15.51-.33.7-.45l.31-.21s-.51-.59-1-1.2-.94-1.21-.94-1.21a7.27,7.27,0,0,0-1.79-1.66,8.25,8.25,0,0,0-2.27-1,7.51,7.51,0,0,0-4.65.09l-.77.26Z"/><path class="cls-4" d="M80.59,80.21s0-.21-.07-.52-.11-.72-.17-1.13c-.13-.83-.29-1.64-.29-1.64A8.27,8.27,0,0,1,80,74.71a7.19,7.19,0,0,1,.17-1,5.23,5.23,0,0,1,.31-1,5.15,5.15,0,0,1,.45-.84,4,4,0,0,1,.57-.66,3.85,3.85,0,0,1,1.46-.86s.36-.11.72-.25L83.9,70l.23-.09.22-.09s.37.65.73,1.32l.69,1.34a5.78,5.78,0,0,1,.62,2.27,4.8,4.8,0,0,1-.08,1.19,4.65,4.65,0,0,1-.15.59,5.77,5.77,0,0,1-.22.58A5.13,5.13,0,0,1,82.22,80L82,80l-.56.09-.56.08Z"/><path class="cls-4" d="M80.59,80.21l.31.42.71.91c.52.66,1.06,1.3,1.06,1.3a5,5,0,0,0,1.89,1.39,5.37,5.37,0,0,0,1.22.35,5.61,5.61,0,0,0,1.37.06,6.84,6.84,0,0,0,2.71-.78A7.2,7.2,0,0,0,92,82.13s.38-.46.73-.92l.27-.33.21-.3.22-.29-1.3-.82c-.65-.41-1.29-.85-1.29-.85a7.27,7.27,0,0,0-2.22-1,8.41,8.41,0,0,0-1.22-.21q-.32,0-.63,0c-.21,0-.43,0-.64,0a7.19,7.19,0,0,0-4.3,1.76l-.19.17c-.12.09-.27.23-.43.36l-.44.34Z"/><path class="cls-4" d="M88.9,75.05l-.23-.47-.52-1c-.39-.74-.8-1.46-.8-1.46A7.78,7.78,0,0,1,86.57,70a6.61,6.61,0,0,1-.11-2.12,4.33,4.33,0,0,1,1.84-3.13l.21-.14.44-.33L89.4,64l.2-.16s.52.54,1,1.1l.7.77.32.35a5.94,5.94,0,0,1,1.19,2,5.12,5.12,0,0,1,.21,2.41,5,5,0,0,1-.33,1.2,5.54,5.54,0,0,1-.58,1.07,5.36,5.36,0,0,1-1.78,1.57l-.23.12c-.13.08-.32.17-.5.26l-.5.26Z"/><path class="cls-4" d="M88.9,75.05l.44.29,1,.64c.7.45,1.42.89,1.42.89a5,5,0,0,0,2.2.75,5.7,5.7,0,0,0,2.54-.35,6.79,6.79,0,0,0,3.81-3.64l.15-.33c.07-.19.18-.45.29-.72s.21-.52.28-.71l.13-.33-1.47-.46-1-.33-.45-.16a7.26,7.26,0,0,0-4.84.11,7,7,0,0,0-3.59,3l-.13.22c-.07.13-.19.3-.29.47l-.3.48Z"/><path class="cls-4" d="M95.36,67.67,95,67.28c-.2-.23-.48-.54-.77-.85-.56-.62-1.14-1.22-1.14-1.22a6.58,6.58,0,0,1-.71-.87,7.74,7.74,0,0,1-.56-1,6.3,6.3,0,0,1-.39-1c0-.17-.09-.35-.13-.52a5,5,0,0,1-.08-.54,4.54,4.54,0,0,1,1.12-3.6s.26-.31.54-.62l.36-.44.17-.2s.63.42,1.24.85,1.24.87,1.24.87a5.55,5.55,0,0,1,2.37,4,5.33,5.33,0,0,1-1.69,4.38l-.6.56-.42.37Z"/><path class="cls-4" d="M95.36,67.67l.49.17,1.1.37c.79.26,1.6.5,1.6.5a5.26,5.26,0,0,0,1.13.22,5.2,5.2,0,0,0,1.18,0,5.09,5.09,0,0,0,1.19-.31l.59-.27a4.65,4.65,0,0,0,.56-.34,6.59,6.59,0,0,0,2.8-4.31s.1-.54.19-1.09l.11-.75,0-.34-1.53-.13-1.53-.16A7.08,7.08,0,0,0,96.86,64a6.69,6.69,0,0,0-1,2.08s-.11.38-.24.77l-.17.54Z"/><path class="cls-4" d="M99.88,59s-.67-.49-1.36-1-1.37-.94-1.37-.94a7,7,0,0,1-1.63-1.54,6.15,6.15,0,0,1-1-1.93,4.66,4.66,0,0,1,.39-3.82l.41-.74.4-.74s.7.29,1.39.6l1.38.62a5.88,5.88,0,0,1,1.92,1.39A5.42,5.42,0,0,1,101.59,53a5.2,5.2,0,0,1,.21,1.22,5.49,5.49,0,0,1-.06,1.22,5.56,5.56,0,0,1-.9,2.19l-.15.21-.32.46Z"/><path class="cls-4" d="M99.88,59s.83.1,1.67.18,1.67.15,1.67.15a5.32,5.32,0,0,0,2.29-.3,5.63,5.63,0,0,0,2.09-1.36,6.52,6.52,0,0,0,1.86-4.71l0-1.09c0-.54,0-1.09,0-1.09l-1.53.16-1.52.13a7.07,7.07,0,0,0-2.34.63,7.22,7.22,0,0,0-2,1.43,6.93,6.93,0,0,0-.79,1,5.61,5.61,0,0,0-.58,1,6.49,6.49,0,0,0-.57,2.25s0,.1,0,.25,0,.36-.05.56Z"/><path class="cls-4" d="M102.54,49.51,101,48.82l-1.53-.67a6.38,6.38,0,0,1-1-.53A5.92,5.92,0,0,1,97.6,47a6.09,6.09,0,0,1-1.35-1.73,4.77,4.77,0,0,1-.32-3.87s0-.1.09-.25l.19-.56.26-.81,1.47.35,1.47.37a5.88,5.88,0,0,1,2.14,1l.45.39a4.27,4.27,0,0,1,.41.44,5.15,5.15,0,0,1,.69,1,5.47,5.47,0,0,1,.13,4.69l-.11.23-.23.52-.24.51Z"/><path class="cls-4" d="M102.54,49.51s.84-.06,1.67-.14l1.67-.17A5.46,5.46,0,0,0,107,49a5.35,5.35,0,0,0,1.06-.49,5.54,5.54,0,0,0,1.81-1.71,6.45,6.45,0,0,0,.95-4.92s0-.13-.07-.33-.09-.47-.16-.73l-.24-1.05s-.74.22-1.48.42l-1.48.4a7,7,0,0,0-2.18,1c-.16.12-.33.25-.48.38s-.31.28-.45.43a7.65,7.65,0,0,0-.8,1,6.52,6.52,0,0,0-1.11,4.53s0,.1,0,.25,0,.36.06.56,0,.4.06.56S102.54,49.51,102.54,49.51Z"/></g></g></svg>